<mxfile host="65bd71144e">
    <diagram id="2xUQstJRrgFkY8njzS0u" name="Page-1">
        <mxGraphModel dx="438" dy="347" grid="1" gridSize="10" guides="1" tooltips="1" connect="1" arrows="1" fold="1" page="1" pageScale="1" pageWidth="850" pageHeight="1100" math="0" shadow="0">
            <root>
                <mxCell id="0"/>
                <mxCell id="1" parent="0"/>
                <mxCell id="2" value="Menú/Página de buscar" style="rounded=1;whiteSpace=wrap;html=1;" vertex="1" parent="1">
                    <mxGeometry x="330" y="140" width="120" height="40" as="geometry"/>
                </mxCell>
                <mxCell id="3" value="Lista de productos en carrito de compra." style="rounded=1;whiteSpace=wrap;html=1;" vertex="1" parent="1">
                    <mxGeometry x="330" y="200" width="120" height="60" as="geometry"/>
                </mxCell>
                <mxCell id="4" value="Clic en botón para eliminar producto del carrito de compra" style="rounded=1;whiteSpace=wrap;html=1;" vertex="1" parent="1">
                    <mxGeometry x="330" y="370" width="120" height="60" as="geometry"/>
                </mxCell>
                <mxCell id="5" value="Verificación de que el producto exista en la página para eliminar" style="rhombus;whiteSpace=wrap;html=1;rounded=0;autosize=0;fixedWidth=0;fillColor=default;fontSize=12;verticalAlign=middle;" vertex="1" parent="1">
                    <mxGeometry x="310" y="463.75" width="180" height="87.5" as="geometry"/>
                </mxCell>
                <mxCell id="6" value="Error: No se elimina producto." style="rounded=1;whiteSpace=wrap;html=1;" vertex="1" parent="1">
                    <mxGeometry x="110" y="475" width="130" height="65" as="geometry"/>
                </mxCell>
                <mxCell id="7" value="" style="endArrow=classic;html=1;entryX=0;entryY=0.5;entryDx=0;entryDy=0;exitX=0.5;exitY=0;exitDx=0;exitDy=0;" edge="1" parent="1" source="6" target="4">
                    <mxGeometry width="50" height="50" relative="1" as="geometry">
                        <mxPoint x="230" y="460" as="sourcePoint"/>
                        <mxPoint x="280" y="410" as="targetPoint"/>
                        <Array as="points">
                            <mxPoint x="175" y="400"/>
                        </Array>
                    </mxGeometry>
                </mxCell>
                <mxCell id="8" value="" style="endArrow=classic;html=1;fontSize=10;exitX=0;exitY=0.5;exitDx=0;exitDy=0;entryX=1;entryY=0.5;entryDx=0;entryDy=0;" edge="1" parent="1" source="5" target="6">
                    <mxGeometry width="50" height="50" relative="1" as="geometry">
                        <mxPoint x="290" y="560" as="sourcePoint"/>
                        <mxPoint x="340" y="510" as="targetPoint"/>
                    </mxGeometry>
                </mxCell>
                <mxCell id="9" value="Se elimina el producto del carrito de compras." style="rounded=1;whiteSpace=wrap;html=1;fontSize=10;fillColor=default;" vertex="1" parent="1">
                    <mxGeometry x="340" y="590" width="120" height="60" as="geometry"/>
                </mxCell>
                <mxCell id="10" value="Fin" style="strokeWidth=2;html=1;shape=mxgraph.flowchart.terminator;whiteSpace=wrap;rounded=0;fontSize=10;fillColor=default;" vertex="1" parent="1">
                    <mxGeometry x="350" y="680" width="100" height="60" as="geometry"/>
                </mxCell>
                <mxCell id="11" value="Inicio" style="strokeWidth=2;html=1;shape=mxgraph.flowchart.start_1;whiteSpace=wrap;rounded=0;fontSize=10;fillColor=default;" vertex="1" parent="1">
                    <mxGeometry x="345" y="40" width="100" height="60" as="geometry"/>
                </mxCell>
                <mxCell id="12" value="" style="endArrow=classic;html=1;fontSize=10;exitX=0.5;exitY=1;exitDx=0;exitDy=0;entryX=0.5;entryY=0;entryDx=0;entryDy=0;" edge="1" parent="1" source="5" target="9">
                    <mxGeometry width="50" height="50" relative="1" as="geometry">
                        <mxPoint x="350" y="540" as="sourcePoint"/>
                        <mxPoint x="400" y="490" as="targetPoint"/>
                    </mxGeometry>
                </mxCell>
                <mxCell id="13" value="" style="endArrow=classic;html=1;fontSize=10;exitX=0.5;exitY=1;exitDx=0;exitDy=0;entryX=0.5;entryY=0;entryDx=0;entryDy=0;entryPerimeter=0;" edge="1" parent="1" source="9" target="10">
                    <mxGeometry width="50" height="50" relative="1" as="geometry">
                        <mxPoint x="380" y="710" as="sourcePoint"/>
                        <mxPoint x="400" y="690" as="targetPoint"/>
                    </mxGeometry>
                </mxCell>
                <mxCell id="14" value="" style="endArrow=classic;html=1;fontSize=10;exitX=0.58;exitY=1.007;exitDx=0;exitDy=0;exitPerimeter=0;entryX=0.5;entryY=0;entryDx=0;entryDy=0;" edge="1" parent="1" source="4" target="5">
                    <mxGeometry width="50" height="50" relative="1" as="geometry">
                        <mxPoint x="360" y="490" as="sourcePoint"/>
                        <mxPoint x="410" y="440" as="targetPoint"/>
                    </mxGeometry>
                </mxCell>
                <mxCell id="15" value="" style="endArrow=classic;html=1;fontSize=10;entryX=0.577;entryY=0;entryDx=0;entryDy=0;entryPerimeter=0;exitX=0.559;exitY=1.063;exitDx=0;exitDy=0;exitPerimeter=0;" edge="1" parent="1" source="18" target="4">
                    <mxGeometry width="50" height="50" relative="1" as="geometry">
                        <mxPoint x="399" y="340" as="sourcePoint"/>
                        <mxPoint x="410" y="360" as="targetPoint"/>
                    </mxGeometry>
                </mxCell>
                <mxCell id="16" value="" style="endArrow=classic;html=1;fontSize=10;exitX=0.593;exitY=1.04;exitDx=0;exitDy=0;exitPerimeter=0;entryX=0.593;entryY=-0.027;entryDx=0;entryDy=0;entryPerimeter=0;" edge="1" parent="1" source="2">
                    <mxGeometry width="50" height="50" relative="1" as="geometry">
                        <mxPoint x="390" y="230" as="sourcePoint"/>
                        <mxPoint x="401.1600000000001" y="198.3800000000001" as="targetPoint"/>
                    </mxGeometry>
                </mxCell>
                <mxCell id="17" value="" style="endArrow=classic;html=1;fontSize=10;exitX=0.542;exitY=1.033;exitDx=0;exitDy=0;exitPerimeter=0;entryX=0.583;entryY=0;entryDx=0;entryDy=0;entryPerimeter=0;" edge="1" parent="1" source="11" target="2">
                    <mxGeometry width="50" height="50" relative="1" as="geometry">
                        <mxPoint x="410" y="160" as="sourcePoint"/>
                        <mxPoint x="460" y="110" as="targetPoint"/>
                    </mxGeometry>
                </mxCell>
                <mxCell id="18" value="Eliminar productos en el carrito de compra" style="rounded=1;whiteSpace=wrap;html=1;absoluteArcSize=1;arcSize=14;strokeWidth=2;fontSize=12;fillColor=default;" vertex="1" parent="1">
                    <mxGeometry x="320" y="280" width="140" height="50" as="geometry"/>
                </mxCell>
                <mxCell id="19" value="" style="endArrow=classic;html=1;fontSize=12;exitX=0.596;exitY=1.027;exitDx=0;exitDy=0;exitPerimeter=0;entryX=0.585;entryY=0;entryDx=0;entryDy=0;entryPerimeter=0;" edge="1" parent="1" source="3" target="18">
                    <mxGeometry width="50" height="50" relative="1" as="geometry">
                        <mxPoint x="390" y="300" as="sourcePoint"/>
                        <mxPoint x="440" y="250" as="targetPoint"/>
                    </mxGeometry>
                </mxCell>
            </root>
        </mxGraphModel>
    </diagram>
</mxfile>